<svg xmlns="http://www.w3.org/2000/svg">
    <path d="M3 12c0-2.168 1.36-4 3.5-4 1.352 0 2.291.498 3.053 1.26.486.486.899 1.078 1.293 1.729.176-.316.363-.647.564-.982a9.018 9.018 0 00-1.15-1.454C9.334 7.627 8.148 7 6.5 7 3.64 7 2 9.466 2 12s1.64 5 4.5 5c1.648 0 2.834-.627 3.76-1.553.92-.919 1.551-2.078 2.177-3.204.633-1.14 1.225-2.198 2.01-2.983C15.21 8.498 16.148 8 17.5 8c2.14 0 3.5 1.832 3.5 4s-1.36 4-3.5 4c-1.352 0-2.291-.498-3.053-1.26-.486-.486-.899-1.078-1.293-1.729-.176.316-.363.647-.564.982a9.02 9.02 0 001.15 1.454c.926.926 2.112 1.553 3.76 1.553 2.86 0 4.5-2.466 4.5-5s-1.64-5-4.5-5c-1.648 0-2.834.627-3.76 1.553-.893.893-1.547 2.07-2.159 3.171-.585 1.054-1.168 2.155-2.028 3.016C8.79 15.502 7.852 16 6.5 16 4.36 16 3 14.168 3 12z" />
</svg>